<svg width="127" height="31" viewBox="0 0 127 31" fill="none" xmlns="http://www.w3.org/2000/svg">
<g clip-path="url(#clip0_75_319)">
<path d="M71.2761 0.634277H69.4055C69.0295 0.634277 68.7247 0.939091 68.7247 1.3151V22.6647C68.7247 23.0407 69.0295 23.3455 69.4055 23.3455H71.2761C71.6521 23.3455 71.9569 23.0407 71.9569 22.6647V1.3151C71.9569 0.939091 71.6521 0.634277 71.2761 0.634277Z" fill="#A1A3B0"/>
<path d="M71.2761 0.634277H69.4055C69.0295 0.634277 68.7247 0.939091 68.7247 1.3151V22.6647C68.7247 23.0407 69.0295 23.3455 69.4055 23.3455H71.2761C71.6521 23.3455 71.9569 23.0407 71.9569 22.6647V1.3151C71.9569 0.939091 71.6521 0.634277 71.2761 0.634277Z" fill="#A1A3B0"/>
<path d="M81.3509 8.17822C76.9497 8.17822 73.7519 11.4138 73.7519 15.8701C73.7519 20.3814 76.9497 23.6549 81.3509 23.6549C84.2393 23.6549 86.6359 22.3929 87.9253 20.1957C87.9741 20.1102 88.004 20.0152 88.0129 19.9171C88.0218 19.8191 88.0095 19.7203 87.9769 19.6273C87.9443 19.5344 87.8921 19.4496 87.8239 19.3786C87.7557 19.3076 87.673 19.2521 87.5815 19.2158L86.8938 18.9648C86.5981 18.8616 86.3024 18.755 86.0239 18.645C85.8847 18.5848 85.7292 18.5737 85.5829 18.6137C85.4367 18.6537 85.3084 18.7424 85.2193 18.865C84.7877 19.4578 84.217 19.9354 83.5574 20.2556C82.8978 20.5758 82.1696 20.7288 81.4369 20.7012C79.2535 20.7012 77.5858 19.4771 77.0838 17.5068C77.0755 17.47 77.0755 17.4317 77.0838 17.3948C77.0921 17.3579 77.1086 17.3234 77.1319 17.2937C77.156 17.2627 77.1867 17.2377 77.2219 17.2204C77.257 17.2031 77.2956 17.1941 77.3348 17.1939H88.0457C88.2234 17.1941 88.3943 17.1254 88.5225 17.0023C88.6507 16.8793 88.7263 16.7113 88.7334 16.5338C88.7334 16.3068 88.7334 16.073 88.7334 15.8701C88.7334 11.3416 85.6972 8.17822 81.3509 8.17822ZM85.3809 14.4775C85.3574 14.5091 85.3267 14.5346 85.2915 14.5519C85.2562 14.5692 85.2173 14.5779 85.178 14.5773H77.3417C77.3024 14.5779 77.2635 14.5692 77.2282 14.5519C77.1929 14.5346 77.1623 14.5091 77.1388 14.4775C77.1154 14.4478 77.099 14.4132 77.0907 14.3764C77.0824 14.3395 77.0823 14.3012 77.0907 14.2643C77.5858 12.3319 79.2156 11.1353 81.3509 11.1353C83.414 11.1353 84.951 12.3044 85.429 14.2678C85.4375 14.3041 85.4376 14.3419 85.4293 14.3783C85.4209 14.4146 85.4044 14.4486 85.3809 14.4775Z" fill="#A1A3B0"/>
<path d="M81.3509 8.17822C76.9497 8.17822 73.7519 11.4138 73.7519 15.8701C73.7519 20.3814 76.9497 23.6549 81.3509 23.6549C84.2393 23.6549 86.6359 22.3929 87.9253 20.1957C87.9741 20.1102 88.004 20.0152 88.0129 19.9171C88.0218 19.8191 88.0095 19.7203 87.9769 19.6273C87.9443 19.5344 87.8921 19.4496 87.8239 19.3786C87.7557 19.3076 87.673 19.2521 87.5815 19.2158L86.8938 18.9648C86.5981 18.8616 86.3024 18.755 86.0239 18.645C85.8847 18.5848 85.7292 18.5737 85.5829 18.6137C85.4367 18.6537 85.3084 18.7424 85.2193 18.865C84.7877 19.4578 84.217 19.9354 83.5574 20.2556C82.8978 20.5758 82.1696 20.7288 81.4369 20.7012C79.2535 20.7012 77.5858 19.4771 77.0838 17.5068C77.0755 17.47 77.0755 17.4317 77.0838 17.3948C77.0921 17.3579 77.1086 17.3234 77.1319 17.2937C77.156 17.2627 77.1867 17.2377 77.2219 17.2204C77.257 17.2031 77.2956 17.1941 77.3348 17.1939H88.0457C88.2234 17.1941 88.3943 17.1254 88.5225 17.0023C88.6507 16.8793 88.7263 16.7113 88.7334 16.5338C88.7334 16.3068 88.7334 16.073 88.7334 15.8701C88.7334 11.3416 85.6972 8.17822 81.3509 8.17822ZM85.3809 14.4775C85.3574 14.5091 85.3267 14.5346 85.2915 14.5519C85.2562 14.5692 85.2173 14.5779 85.178 14.5773H77.3417C77.3024 14.5779 77.2635 14.5692 77.2282 14.5519C77.1929 14.5346 77.1623 14.5091 77.1388 14.4775C77.1154 14.4478 77.099 14.4132 77.0907 14.3764C77.0824 14.3395 77.0823 14.3012 77.0907 14.2643C77.5858 12.3319 79.2156 11.1353 81.3509 11.1353C83.414 11.1353 84.951 12.3044 85.429 14.2678C85.4375 14.3041 85.4376 14.3419 85.4293 14.3783C85.4209 14.4146 85.4044 14.4486 85.3809 14.4775Z" fill="#A1A3B0"/>
<path d="M105.224 8.48785H103.361C103.181 8.48779 103.009 8.55788 102.881 8.68315C102.752 8.80843 102.678 8.97896 102.673 9.15835V9.57441C102.674 9.62271 102.661 9.67018 102.634 9.71065C102.608 9.75112 102.57 9.78273 102.525 9.80135C102.482 9.822 102.433 9.82879 102.386 9.82079C102.338 9.8128 102.295 9.7904 102.261 9.75665C101.027 8.69395 99.4425 8.12669 97.8145 8.16463C93.4477 8.16463 90.2774 11.414 90.2774 15.8875C90.2774 20.361 93.5336 23.6722 97.8317 23.6722C99.4672 23.6848 101.05 23.092 102.274 22.008C102.31 21.9751 102.354 21.9533 102.401 21.9453C102.449 21.9372 102.498 21.9432 102.542 21.9626C102.586 21.982 102.624 22.0138 102.65 22.0543C102.677 22.0947 102.69 22.142 102.69 22.1902V22.6751C102.69 22.8574 102.763 23.0324 102.892 23.1613C103.021 23.2903 103.196 23.3628 103.378 23.3628H105.242C105.421 23.3583 105.592 23.2838 105.717 23.1554C105.842 23.0269 105.912 22.8545 105.912 22.6751V9.15835C105.908 8.97896 105.833 8.80843 105.705 8.68315C105.576 8.55788 105.404 8.48779 105.224 8.48785ZM98.0793 20.4847C95.5211 20.4847 93.5886 18.5007 93.5886 15.8703C93.5886 13.2398 95.4764 11.3521 98.0793 11.3521C100.356 11.3521 102.659 12.9029 102.659 15.8703C102.659 19.0406 100.287 20.4847 98.0793 20.4847Z" fill="#A1A3B0"/>
<path d="M105.224 8.48785H103.361C103.181 8.48779 103.009 8.55788 102.881 8.68315C102.752 8.80843 102.678 8.97896 102.673 9.15835V9.57441C102.674 9.62271 102.661 9.67018 102.634 9.71065C102.608 9.75112 102.57 9.78273 102.525 9.80135C102.482 9.822 102.433 9.82879 102.386 9.82079C102.338 9.8128 102.295 9.7904 102.261 9.75665C101.027 8.69395 99.4425 8.12669 97.8145 8.16463C93.4477 8.16463 90.2774 11.414 90.2774 15.8875C90.2774 20.361 93.5336 23.6722 97.8317 23.6722C99.4672 23.6848 101.05 23.092 102.274 22.008C102.31 21.9751 102.354 21.9533 102.401 21.9453C102.449 21.9372 102.498 21.9432 102.542 21.9626C102.586 21.982 102.624 22.0138 102.65 22.0543C102.677 22.0947 102.69 22.142 102.69 22.1902V22.6751C102.69 22.8574 102.763 23.0324 102.892 23.1613C103.021 23.2903 103.196 23.3628 103.378 23.3628H105.242C105.421 23.3583 105.592 23.2838 105.717 23.1554C105.842 23.0269 105.912 22.8545 105.912 22.6751V9.15835C105.908 8.97896 105.833 8.80843 105.705 8.68315C105.576 8.55788 105.404 8.48779 105.224 8.48785ZM98.0793 20.4847C95.5211 20.4847 93.5886 18.5007 93.5886 15.8703C93.5886 13.2398 95.4764 11.3521 98.0793 11.3521C100.356 11.3521 102.659 12.9029 102.659 15.8703C102.659 19.0406 100.287 20.4847 98.0793 20.4847Z" fill="#A1A3B0"/>
<path d="M116.214 8.17828C114.588 8.15279 113.013 8.74651 111.809 9.83907C111.773 9.87215 111.728 9.89412 111.68 9.90236C111.632 9.91059 111.582 9.90475 111.537 9.88551C111.492 9.86628 111.454 9.83447 111.426 9.79391C111.399 9.75335 111.384 9.70576 111.383 9.65683V9.16169C111.383 8.98224 111.313 8.80987 111.187 8.68139C111.062 8.5529 110.892 8.47847 110.712 8.47399H108.824C108.642 8.47399 108.467 8.54644 108.338 8.67541C108.209 8.80438 108.137 8.9793 108.137 9.16169V29.6895C108.137 29.8719 108.209 30.0468 108.338 30.1757C108.467 30.3047 108.642 30.3772 108.824 30.3772H110.712C110.892 30.3727 111.062 30.2982 111.187 30.1698C111.313 30.0413 111.383 29.8689 111.383 29.6895V22.2589C111.382 22.2097 111.396 22.1614 111.423 22.1203C111.45 22.0792 111.489 22.0472 111.534 22.0285C111.579 22.0077 111.629 22.0012 111.677 22.0098C111.726 22.0184 111.771 22.0417 111.806 22.0767C113.025 23.1387 114.597 23.7076 116.214 23.6721C120.526 23.6721 123.658 20.4365 123.658 15.9802C123.658 11.4517 120.526 8.17828 116.214 8.17828ZM115.935 20.4846C113.69 20.4846 111.414 18.9407 111.414 15.994C111.414 12.803 113.759 11.352 115.935 11.352C118.518 11.352 120.405 13.3051 120.405 15.994C120.405 18.6829 118.559 20.4846 115.935 20.4846Z" fill="#A1A3B0"/>
<path d="M116.214 8.17828C114.588 8.15279 113.013 8.74651 111.809 9.83907C111.773 9.87215 111.728 9.89412 111.68 9.90236C111.632 9.91059 111.582 9.90475 111.537 9.88551C111.492 9.86628 111.454 9.83447 111.426 9.79391C111.399 9.75335 111.384 9.70576 111.383 9.65683V9.16169C111.383 8.98224 111.313 8.80987 111.187 8.68139C111.062 8.5529 110.892 8.47847 110.712 8.47399H108.824C108.642 8.47399 108.467 8.54644 108.338 8.67541C108.209 8.80438 108.137 8.9793 108.137 9.16169V29.6895C108.137 29.8719 108.209 30.0468 108.338 30.1757C108.467 30.3047 108.642 30.3772 108.824 30.3772H110.712C110.892 30.3727 111.062 30.2982 111.187 30.1698C111.313 30.0413 111.383 29.8689 111.383 29.6895V22.2589C111.382 22.2097 111.396 22.1614 111.423 22.1203C111.45 22.0792 111.489 22.0472 111.534 22.0285C111.579 22.0077 111.629 22.0012 111.677 22.0098C111.726 22.0184 111.771 22.0417 111.806 22.0767C113.025 23.1387 114.597 23.7076 116.214 23.6721C120.526 23.6721 123.658 20.4365 123.658 15.9802C123.658 11.4517 120.526 8.17828 116.214 8.17828ZM115.935 20.4846C113.69 20.4846 111.414 18.9407 111.414 15.994C111.414 12.803 113.759 11.352 115.935 11.352C118.518 11.352 120.405 13.3051 120.405 15.994C120.405 18.6829 118.559 20.4846 115.935 20.4846Z" fill="#A1A3B0"/>
<path d="M47.0142 11.1286C46.9007 10.9774 46.7838 10.8329 46.6703 10.6885C46.6394 10.6541 46.6085 10.6163 46.5741 10.5819C46.3598 10.3382 46.1301 10.1085 45.8864 9.89423C45.7794 9.79069 45.6364 9.73274 45.4875 9.73262C45.4014 9.72883 45.3157 9.74556 45.2374 9.78144C45.1591 9.81731 45.0904 9.87129 45.0371 9.93893L43.7751 11.7235C43.7053 11.8244 43.6692 11.9447 43.672 12.0674C43.6725 12.1473 43.6892 12.2263 43.7212 12.2996C43.7531 12.3728 43.7995 12.4389 43.8577 12.4937C44.1513 12.7662 44.408 13.076 44.621 13.4152C44.9696 14.0007 45.1899 14.6535 45.2674 15.3305C45.2674 15.4474 45.2881 15.5609 45.2881 15.6743V15.7637C45.2885 16.3464 45.1741 16.9234 44.9514 17.4617C44.7286 18.0001 44.4019 18.4892 43.9899 18.9012C43.5779 19.3132 43.0888 19.6399 42.5504 19.8627C42.012 20.0854 41.435 20.1998 40.8524 20.1994C40.1471 20.1965 39.4524 20.0275 38.8245 19.7061C38.1967 19.3847 37.6533 18.92 37.2386 18.3495L32.2356 11.2937C31.2871 9.96152 29.9399 8.96516 28.3883 8.44838C26.8368 7.9316 25.1612 7.92113 23.6033 8.41848C22.0455 8.91583 20.6859 9.89529 19.7209 11.2155C18.7558 12.5357 18.2351 14.1284 18.234 15.7637C18.2339 16.0222 18.2477 16.2804 18.2753 16.5374C18.2737 16.5534 18.2737 16.5695 18.2753 16.5855C18.3028 16.84 18.3441 17.0944 18.3922 17.342C18.3922 17.342 18.3922 17.3592 18.3922 17.3695C18.7337 18.982 19.5848 20.4419 20.8198 21.5335C20.9378 21.6573 21.0965 21.7343 21.2668 21.7501C21.3795 21.7451 21.489 21.7112 21.5847 21.6515C21.6805 21.5919 21.7593 21.5086 21.8135 21.4097L22.9448 19.8108C23.0308 19.7023 23.0748 19.5663 23.0684 19.4279C23.0621 19.2895 23.006 19.1581 22.9104 19.0578C22.7055 18.8599 22.518 18.6448 22.3499 18.4148C21.8059 17.6378 21.5142 16.7122 21.5144 15.7637C21.5037 15.1911 21.6081 14.6222 21.8213 14.0906C22.0345 13.559 22.3523 13.0757 22.7557 12.6691C23.211 12.2015 23.7637 11.8399 24.3745 11.6098C24.9852 11.3797 25.6391 11.2868 26.2898 11.3376C26.9405 11.3885 27.572 11.5819 28.1396 11.9041C28.7072 12.2263 29.197 12.6694 29.5742 13.2021L34.5531 20.2338C35.1462 21.0636 35.8979 21.7677 36.7648 22.3052C37.6317 22.8427 38.5965 23.2029 39.6035 23.3652C40.6105 23.5274 41.6397 23.4884 42.6316 23.2503C43.6234 23.0123 44.5582 22.5799 45.3819 21.9783C46.2055 21.3767 46.9018 20.6177 47.4302 19.7453C47.9587 18.8729 48.309 17.9044 48.4608 16.8957C48.6126 15.8871 48.5629 14.8584 48.3146 13.8691C48.0663 12.8798 47.6243 11.9495 47.0142 11.1321V11.1286Z" fill="#A1A3B0"/>
<path d="M42.637 8.65969C42.6388 8.58316 42.6252 8.50704 42.5969 8.43592C42.5686 8.3648 42.5261 8.30014 42.4722 8.24585C42.4182 8.19156 42.3538 8.14875 42.2828 8.12001C42.2119 8.09126 42.1359 8.07717 42.0593 8.07858C41.4819 8.01006 40.8991 7.99855 40.3194 8.0442L39.9756 8.08202C38.8993 8.20828 37.8616 8.55945 36.9298 9.11272C35.998 9.666 35.1929 10.409 34.5668 11.2936L29.5776 18.3287C29.2016 18.9015 28.6924 19.3747 28.0935 19.7076C27.4947 20.0406 26.8241 20.2234 26.1391 20.2405H26.0944C26.0111 20.2451 25.9298 20.2678 25.8562 20.307C25.7826 20.3462 25.7184 20.4009 25.668 20.4675L25.6405 20.5018L24.2651 22.4308C24.2099 22.5054 24.1734 22.5922 24.1588 22.6839C24.1442 22.7755 24.1519 22.8693 24.1813 22.9574C24.2106 23.0454 24.2608 23.1251 24.3274 23.1897C24.3941 23.2542 24.4753 23.3018 24.5643 23.3283H24.5952C25.3467 23.406 26.1028 23.4301 26.8577 23.4005C27.933 23.2709 28.9693 22.9179 29.9002 22.3643C30.831 21.8106 31.6359 21.0685 32.2631 20.1855L37.2179 13.1813C37.6047 12.6499 38.1024 12.2089 38.6766 11.8889C39.2507 11.5689 39.8875 11.3775 40.5429 11.328H40.567C40.669 11.3276 40.769 11.3004 40.8572 11.2491C40.9453 11.1977 41.0183 11.1242 41.069 11.0357L42.5166 8.97259C42.587 8.88258 42.6289 8.77364 42.637 8.65969Z" fill="#A1A3B0"/>
<path d="M15.7652 8.48787H13.905C13.7226 8.48787 13.5477 8.56033 13.4187 8.6893C13.2897 8.81827 13.2173 8.99318 13.2173 9.17557V9.67415C13.2172 9.72308 13.2027 9.77091 13.1758 9.81175C13.1488 9.85259 13.1105 9.88466 13.0656 9.90403C13.0207 9.92339 12.971 9.9292 12.9229 9.92073C12.8747 9.91227 12.83 9.88991 12.7943 9.85639C11.5735 8.77055 9.99251 8.17738 8.35869 8.19216C4.07777 8.17841 0.838715 11.5241 0.838715 15.9632C0.838715 20.4022 4.009 23.6722 8.37588 23.6722C10.4149 23.6722 12.2545 22.8298 13.262 21.4854C13.1795 25.505 11.5668 27.4546 8.34494 27.4546C7.5958 27.45 6.85924 27.2617 6.19981 26.9062C5.54038 26.5507 4.97822 26.0388 4.5626 25.4156C4.47175 25.2793 4.33392 25.1812 4.17539 25.1399C4.01686 25.0987 3.84871 25.1173 3.70298 25.1921C3.26285 25.4156 2.59922 25.7732 2.15222 26.0173C2.06911 26.0606 1.99573 26.1205 1.9366 26.1932C1.87747 26.266 1.83383 26.35 1.80837 26.4402C1.78138 26.5274 1.77294 26.6192 1.7836 26.7098C1.79426 26.8004 1.82378 26.8878 1.87026 26.9663C2.54421 28.0755 3.49606 28.9895 4.63164 29.6179C5.76723 30.2463 7.0472 30.5673 8.34494 30.5492C13.7159 30.5492 16.4391 27.317 16.4391 20.9386V9.16182C16.4356 8.98418 16.3635 8.8148 16.2379 8.68916C16.1122 8.56353 15.9428 8.49139 15.7652 8.48787ZM8.62345 20.4813C5.99645 20.4813 4.13279 18.6108 4.13279 15.9322C4.13279 13.319 6.06522 11.3487 8.62345 11.3487C10.831 11.3487 13.2173 12.7825 13.2173 15.9322C13.2173 18.8859 10.8447 20.4813 8.62345 20.4813Z" fill="#A1A3B0"/>
<path d="M64.8669 0.634277H63.0033C62.8209 0.634277 62.646 0.706731 62.517 0.835699C62.388 0.964668 62.3156 1.13959 62.3156 1.32198V9.53309C62.3161 9.58439 62.3014 9.6347 62.2732 9.67757C62.245 9.72045 62.2047 9.75395 62.1574 9.77378C62.1095 9.79462 62.0566 9.80084 62.0052 9.79166C61.9538 9.78248 61.9063 9.75832 61.8686 9.7222C60.8026 8.74224 59.1831 8.17832 57.4226 8.17832C53.0901 8.17832 49.9473 11.4243 49.9473 15.9012C49.9473 20.3196 53.1761 23.655 57.4535 23.655C59.0748 23.6695 60.6457 23.0925 61.872 22.032C61.9097 21.9975 61.9566 21.9746 62.0071 21.9661C62.0575 21.9577 62.1093 21.964 62.1563 21.9844C62.2032 22.0048 62.2432 22.0383 62.2715 22.0809C62.2997 22.1235 62.315 22.1734 62.3156 22.2246V22.6612C62.3156 22.8436 62.388 23.0185 62.517 23.1475C62.646 23.2765 62.8209 23.3489 63.0033 23.3489H64.8669C65.0493 23.3489 65.2242 23.2765 65.3532 23.1475C65.4822 23.0185 65.5546 22.8436 65.5546 22.6612V1.32198C65.5546 1.13959 65.4822 0.964668 65.3532 0.835699C65.2242 0.706731 65.0493 0.634277 64.8669 0.634277ZM62.2881 15.8702C62.2881 19.0405 59.9121 20.4812 57.7046 20.4812C55.1635 20.4812 53.2345 18.5007 53.2345 15.8702C53.2345 13.2398 55.1119 11.3486 57.7046 11.3486C59.9808 11.3486 62.2881 12.9028 62.2881 15.8702Z" fill="#A1A3B0"/>
<path d="M47.0109 11.1286C46.8974 10.9773 46.7805 10.8329 46.667 10.6885C46.6361 10.6541 46.6051 10.6163 46.5707 10.5819C46.3565 10.3381 46.1268 10.1084 45.883 9.89417C45.7761 9.79064 45.633 9.73269 45.4842 9.73257C45.399 9.72892 45.3141 9.74539 45.2364 9.78064C45.1588 9.81588 45.0905 9.86891 45.0372 9.93544L43.7718 11.7235C43.7013 11.824 43.6652 11.9446 43.6686 12.0673C43.6687 12.1478 43.6852 12.2275 43.7171 12.3014C43.7491 12.3753 43.7957 12.4419 43.8543 12.4971C44.1489 12.7687 44.4057 13.0786 44.6177 13.4186C44.9663 14.0041 45.1866 14.6569 45.2641 15.3339C45.2641 15.4473 45.2847 15.5608 45.2847 15.6777V15.7637C45.2852 16.346 45.1709 16.9227 44.9483 17.4609C44.7258 17.999 44.3994 18.488 43.9878 18.8999C43.5762 19.3119 43.0874 19.6387 42.5495 19.8616C42.0115 20.0846 41.4349 20.1993 40.8525 20.1993C40.1466 20.197 39.4512 20.0283 38.8227 19.7069C38.1942 19.3854 37.6503 18.9204 37.2352 18.3494L32.2322 11.2936C31.2842 9.96 29.9368 8.96224 28.3846 8.44452C26.8324 7.9268 25.1559 7.91591 23.5971 8.41343C22.0383 8.91095 20.6781 9.89112 19.7128 11.2123C18.7476 12.5336 18.2273 14.1274 18.2273 15.7637C18.2273 16.025 18.2273 16.2829 18.2685 16.5373C18.2685 16.5373 18.2685 16.5683 18.2685 16.5855C18.296 16.8399 18.3373 17.0944 18.3889 17.3419C18.3889 17.3419 18.3889 17.3591 18.3889 17.3694C18.7304 18.982 19.5815 20.4419 20.8164 21.5335C20.9362 21.6567 21.0958 21.7335 21.2669 21.7501C21.38 21.7468 21.4902 21.7135 21.5862 21.6537C21.6823 21.5939 21.7607 21.5097 21.8136 21.4097L22.9483 19.8108C23.0253 19.7123 23.0686 19.5918 23.0721 19.4669C23.0722 19.319 23.0141 19.177 22.9105 19.0715C22.7056 18.8736 22.5181 18.6585 22.35 18.4285C21.8029 17.6475 21.5089 16.7173 21.5076 15.7637C21.4975 15.1911 21.6022 14.6223 21.8154 14.0909C22.0286 13.5594 22.346 13.0759 22.7489 12.669C23.165 12.2438 23.6612 11.9052 24.2089 11.6727C24.7566 11.4401 25.3448 11.3183 25.9398 11.3143C26.6496 11.317 27.3485 11.4887 27.9787 11.8152C28.6089 12.1417 29.1523 12.6135 29.564 13.1917L34.536 20.2337C35.1291 21.0636 35.8808 21.7676 36.7477 22.3051C37.6146 22.8426 38.5794 23.2029 39.5864 23.3651C40.5934 23.5274 41.6226 23.4883 42.6145 23.2503C43.6063 23.0122 44.5411 22.5799 45.3648 21.9783C46.1884 21.3766 46.8847 20.6177 47.4132 19.7453C47.9416 18.8729 48.2919 17.9043 48.4437 16.8957C48.5955 15.8871 48.5458 14.8583 48.2975 13.869C48.0492 12.8797 47.6072 11.9494 46.9971 11.132L47.0109 11.1286Z" fill="#A1A3B0"/>
<path d="M42.637 8.65627C42.6379 8.5797 42.6235 8.50372 42.5946 8.4328C42.5658 8.36188 42.523 8.29746 42.4689 8.24331C42.4147 8.18917 42.3503 8.1464 42.2794 8.11752C42.2084 8.08864 42.1325 8.07424 42.0559 8.07517C41.4785 8.00664 40.8957 7.99513 40.316 8.04078L39.9722 8.08204C38.8952 8.20763 37.8567 8.55849 36.9243 9.1118C35.9918 9.66511 35.1863 10.4085 34.56 11.2936L29.5742 18.3425C29.1984 18.9157 28.6893 19.3894 28.0904 19.7229C27.4916 20.0565 26.8209 20.24 26.1357 20.2577H26.091C26.0082 20.2624 25.9274 20.2851 25.8543 20.3243C25.7813 20.3635 25.7177 20.4182 25.6681 20.4847C25.6575 20.4963 25.6483 20.5089 25.6405 20.5225C25.338 20.9489 24.7259 21.8154 24.2823 22.448C24.2068 22.5468 24.1657 22.6676 24.1654 22.7919C24.1686 22.9115 24.2086 23.0272 24.28 23.1232C24.3514 23.2192 24.4507 23.2908 24.5643 23.3283H24.5987C25.35 23.4095 26.1063 23.4336 26.8612 23.4005C27.9365 23.2709 28.9728 22.9179 29.9036 22.3643C30.8345 21.8106 31.6393 21.0685 32.2665 20.1855L37.2214 13.1813C37.607 12.6487 38.1045 12.2069 38.6788 11.8868C39.2532 11.5666 39.8906 11.3759 40.5464 11.328H40.5705C40.6722 11.3283 40.7721 11.3017 40.8603 11.251C40.9484 11.2003 41.0216 11.1272 41.0725 11.0391L42.5201 8.97605C42.5899 8.88342 42.6306 8.7721 42.637 8.65627Z" fill="#A1A3B0"/>
<path d="M124.208 6.1565H123.521V8.11988H123.249V6.1565H122.561V5.9502H124.212L124.208 6.1565ZM126.839 8.11988H126.57V6.17714L125.821 8.11988H125.646L124.899 6.17714V8.11988H124.624V5.9502H125.119L125.738 7.55253L126.344 5.9502H126.839V8.11988Z" fill="#A1A3B0"/>
</g>
<defs>
<clipPath id="clip0_75_319">
<rect width="126" height="29.9149" fill="white" transform="translate(0.837891 0.634277)"/>
</clipPath>
</defs>
</svg>
