<svg width="101" height="33" viewBox="0 0 101 33" fill="none" xmlns="http://www.w3.org/2000/svg">
<g clip-path="url(#clip0_75_337)">
<path fill-rule="evenodd" clip-rule="evenodd" d="M34.9887 9.2439C30.202 9.2439 26.7699 12.9861 26.7699 17.3533C26.7699 21.7814 30.098 25.5939 35.0449 25.5939C39.5246 25.5939 43.1934 22.172 43.1934 17.4377C43.1934 12.0173 38.9246 9.23609 34.9902 9.23609L34.9887 9.2439ZM52.8621 9.2439C48.0809 9.2439 44.6512 12.9861 44.6512 17.3533C44.6512 21.7814 47.9793 25.5939 52.927 25.5939C57.3957 25.5939 61.0676 22.172 61.0676 17.4377C61.0676 12.0173 56.802 9.23609 52.8645 9.23609L52.8691 9.2439H52.8621ZM80.6199 25.1173H84.2215V1.01578H80.6199V25.1173ZM70.7129 12.4587C72.8691 12.4587 75.0801 14.3009 75.0801 17.4416C75.0801 20.6447 72.8723 22.3947 70.6645 22.3947C68.3207 22.3947 66.1434 20.5041 66.1434 17.4728C66.1434 14.3322 68.409 12.4572 70.7137 12.4572L70.7129 12.4587ZM35.0371 12.4587C37.3918 12.4587 39.623 14.3634 39.623 17.4259C39.623 20.4416 37.4012 22.3947 35.0262 22.3947C32.4246 22.3947 30.3621 20.3111 30.3621 17.4103C30.3621 14.5822 32.3934 12.4705 35.0418 12.4705V12.458L35.0371 12.4587ZM52.9105 12.4587C55.2645 12.4587 57.4965 14.3634 57.4965 17.4259C57.4965 20.4416 55.2738 22.3947 52.8996 22.3947C50.2902 22.3947 48.2277 20.3111 48.2277 17.4103C48.2277 14.5822 50.259 12.4705 52.8996 12.4705L52.9074 12.458L52.9105 12.4587ZM93.4684 9.24C89.3254 9.24 85.8434 12.5369 85.8434 17.4103C85.8434 22.5627 89.723 25.6134 93.8684 25.6134C97.3137 25.6134 99.4387 23.7228 100.704 22.0275L97.8762 20.147C97.1418 21.2877 95.9074 22.397 93.8605 22.397C91.5637 22.397 90.5066 21.1392 89.8527 19.9205L100.838 15.3572L100.269 14.0244C99.2098 11.415 96.7379 9.23296 93.4699 9.23296L93.4621 9.24078L93.4684 9.24ZM25.434 11.7556H13.7621V15.2228H22.0387C21.6324 20.0822 17.591 22.1525 13.7785 22.1525C8.90117 22.1525 4.64336 18.3134 4.64336 12.9337C4.64336 7.6939 8.69023 3.65875 13.784 3.65875C17.7059 3.65875 20.0184 6.16421 20.0184 6.16421L22.4402 3.65406C22.4402 3.65406 19.3301 0.185308 13.6504 0.185308C6.43008 0.179058 0.837891 6.27906 0.837891 12.865C0.837891 19.3181 6.0957 25.615 13.8363 25.615C20.6488 25.615 25.6332 20.9509 25.6332 14.0525C25.6332 12.5994 25.4199 11.7556 25.4199 11.7556H25.434ZM93.6137 12.3806C95.109 12.3806 96.184 13.1759 96.6402 14.1291L89.3199 17.1916C89.0035 14.8275 91.248 12.3908 93.6152 12.3908L93.6137 12.3806ZM70.3973 9.25562C66.0027 9.25562 62.548 13.1134 62.548 17.4259C62.548 22.3478 66.548 25.6134 70.3215 25.6134C72.6496 25.6134 73.884 24.6916 74.8059 23.6291V25.2384C74.8059 28.065 73.0871 29.7525 70.509 29.7525C68.009 29.7525 66.759 27.8931 66.3215 26.8423L63.1816 28.1541C64.2965 30.5134 66.541 32.9728 70.5348 32.9728C74.9035 32.9728 78.234 30.2197 78.234 24.4494V9.75406H74.8066V11.1392C73.752 10.0142 72.3113 9.26421 70.3973 9.26421V9.2564V9.25562Z" fill="#A1A3B0"/>
</g>
<defs>
<clipPath id="clip0_75_337">
<rect width="100" height="32.8125" fill="white" transform="translate(0.837891 0.185303)"/>
</clipPath>
</defs>
</svg>
