<svg width="151" height="37" viewBox="0 0 151 37" fill="none" xmlns="http://www.w3.org/2000/svg">
<g clip-path="url(#clip0_75_313)">
<path d="M50.0821 12.625C51.6931 12.625 52.7012 13.2466 53.5272 14.0843L53.6801 14.2438C53.7052 14.2708 53.7302 14.2979 53.7551 14.3252V14.3035C53.7551 13.4326 54.4774 12.7103 55.3693 12.7103C56.2608 12.7103 56.9824 13.4326 56.9824 14.3252V21.658C56.9824 23.6992 56.4947 25.1865 55.5388 26.1431C54.4774 27.206 52.8419 27.6734 50.6341 27.6734C49.1259 27.6734 47.8092 27.4185 46.472 26.8867C45.9199 26.6749 45.5588 26.228 45.5588 25.6326C45.5588 24.9103 46.1531 24.3156 46.8754 24.3156C47.088 24.3156 47.2572 24.3575 47.4061 24.4215C48.3407 24.8467 49.3384 25.1015 50.5492 25.1015C52.7573 25.1015 53.7981 24.039 53.7981 21.9982V21.4454C52.8419 22.5936 51.8022 23.2946 50.0821 23.2946C47.4633 23.2946 45.0923 21.4124 45.0287 18.1172L45.0273 17.9387C45.0273 14.5378 47.4698 12.625 50.0821 12.625ZM51.0163 15.3028C49.4765 15.3028 48.3034 16.3437 48.2571 17.8461L48.2557 17.981C48.2557 19.5536 49.4451 20.6165 51.0163 20.6165C52.556 20.6165 53.7496 19.5759 53.7967 18.0735L53.7981 17.9387C53.7981 16.3866 52.5874 15.3028 51.0163 15.3028ZM70.8079 12.7103C72.5699 12.7103 73.8443 13.1778 74.6508 13.985C75.5004 14.8346 75.8832 16.0898 75.8832 17.6202V22.8055C75.8832 23.6775 75.1823 24.3575 74.3114 24.3575C73.4064 24.3575 72.8003 23.7397 72.7633 23.0822L72.7615 22.9967C71.9756 23.8687 70.8929 24.4421 69.321 24.4421C67.2126 24.4421 65.4729 23.2508 65.4155 21.0685L65.4141 20.9144C65.4141 18.4274 67.3033 17.2792 70.001 17.2792C71.1474 17.2792 71.9756 17.4705 72.7829 17.7467V17.5558C72.7829 16.2171 71.9543 15.4727 70.3408 15.4727C69.449 15.4727 68.7266 15.6007 68.111 15.7919C67.9201 15.8556 67.7928 15.8773 67.6439 15.8773C66.901 15.8773 66.3059 15.3028 66.3059 14.5584C66.3059 13.985 66.6663 13.4963 67.1768 13.3043C68.1959 12.9222 69.3004 12.7103 70.8079 12.7103ZM64.225 12.7103C65.2232 12.7103 65.7962 13.3687 65.7962 14.2822C65.7962 15.1032 65.2812 15.6074 64.6538 15.7752L64.5862 15.7919C62.9503 16.1748 62.0371 17.4282 62.0371 19.7239V22.7419C62.0371 23.6345 61.3155 24.3575 60.424 24.3575C59.5314 24.3575 58.8098 23.6345 58.8098 22.7419V14.3252C58.8098 13.4326 59.5314 12.7103 60.424 12.7103C61.3155 12.7103 62.0371 13.4326 62.0371 14.3252V14.8346C62.5049 13.7302 63.2688 12.7103 64.225 12.7103ZM70.7649 19.2138C69.3846 19.2138 68.5358 19.7662 68.5358 20.7871V20.8294C68.5358 21.701 69.2581 22.2108 70.2978 22.2108C71.806 22.2108 72.8252 21.3818 72.8252 20.213V19.6389C72.2731 19.384 71.5515 19.2138 70.7649 19.2138ZM91.1299 12.625C93.53 12.625 94.9739 14.0704 94.9739 16.8129V22.7419C94.9739 23.6345 94.2516 24.3575 93.3597 24.3575C92.4679 24.3575 91.7455 23.6345 91.7455 22.7419V17.875C91.7455 16.3443 91.0662 15.5577 89.8563 15.5577C88.6455 15.5577 87.9026 16.3443 87.9026 17.875V22.7419C87.9026 23.6345 87.181 24.3575 86.2884 24.3575C85.3966 24.3575 84.6743 23.6345 84.6743 22.7419V17.875C84.6743 16.3443 83.9957 15.5577 82.785 15.5577C81.5742 15.5577 80.8321 16.3443 80.8321 17.875V22.7419C80.8321 23.6345 80.1098 24.3575 79.2179 24.3575C78.3253 24.3575 77.6037 23.6345 77.6037 22.7419V14.3252C77.6037 13.4326 78.3253 12.7103 79.2179 12.7103C80.1098 12.7103 80.8321 13.4326 80.8321 14.3252V14.4532C81.5742 13.4963 82.5518 12.625 84.1866 12.625C85.6728 12.625 86.7985 13.2837 87.3925 14.4319C88.391 13.2627 89.5804 12.625 91.1299 12.625ZM110.242 12.625C112.642 12.625 114.086 14.0704 114.086 16.8129V22.7419C114.086 23.6345 113.365 24.3575 112.472 24.3575C111.58 24.3575 110.858 23.6345 110.858 22.7419V17.875C110.858 16.3443 110.179 15.5577 108.969 15.5577C107.758 15.5577 107.015 16.3443 107.015 17.875V22.7419C107.015 23.6345 106.293 24.3575 105.401 24.3575C104.509 24.3575 103.787 23.6345 103.787 22.7419V17.875C103.787 16.3443 103.108 15.5577 101.897 15.5577C100.687 15.5577 99.9441 16.3443 99.9441 17.875V22.7419C99.9441 23.6345 99.2217 24.3575 98.3302 24.3575C97.4376 24.3575 96.7161 23.6345 96.7161 22.7419V14.3252C96.7161 13.4326 97.4376 12.7103 98.3302 12.7103C99.2217 12.7103 99.9441 13.4326 99.9441 14.3252V14.4532C100.687 13.4963 101.664 12.625 103.299 12.625C104.785 12.625 105.911 13.2837 106.505 14.4319C107.503 13.2627 108.692 12.625 110.242 12.625ZM120.543 12.7103C122.305 12.7103 123.579 13.1778 124.386 13.985C125.235 14.8346 125.617 16.0898 125.617 17.6202V22.8055C125.617 23.6775 124.917 24.3575 124.047 24.3575C123.141 24.3575 122.535 23.7397 122.498 23.0822L122.496 22.9967C121.71 23.8687 120.627 24.4421 119.056 24.4421C116.947 24.4421 115.208 23.2508 115.15 21.0685L115.149 20.9144C115.149 18.4274 117.039 17.2792 119.735 17.2792C120.882 17.2792 121.71 17.4705 122.517 17.7467V17.5558C122.517 16.2171 121.69 15.4727 120.075 15.4727C119.183 15.4727 118.461 15.6007 117.846 15.7919C117.655 15.8556 117.528 15.8773 117.379 15.8773C116.635 15.8773 116.041 15.3028 116.041 14.5584C116.041 13.985 116.402 13.4963 116.911 13.3043C117.931 12.9222 119.035 12.7103 120.543 12.7103ZM120.5 19.2138C119.119 19.2138 118.27 19.7662 118.27 20.7871V20.8294C118.27 21.701 118.992 22.2108 120.033 22.2108C121.54 22.2108 122.56 21.3818 122.56 20.213V19.6389C122.008 19.384 121.286 19.2138 120.5 19.2138ZM132.754 12.7103C133.751 12.7103 134.324 13.3687 134.324 14.2822C134.324 15.1032 133.809 15.6074 133.182 15.7752L133.114 15.7919C131.479 16.1748 130.566 17.4282 130.566 19.7239V22.7419C130.566 23.6345 129.844 24.3575 128.952 24.3575C128.06 24.3575 127.338 23.6345 127.338 22.7419V14.3252C127.338 13.4326 128.06 12.7103 128.952 12.7103C129.844 12.7103 130.566 13.4326 130.566 14.3252V14.8346C131.033 13.7302 131.797 12.7103 132.754 12.7103ZM136.915 8.58643C137.808 8.58643 138.53 9.30838 138.53 10.201V22.7419C138.53 23.6345 137.808 24.3575 136.915 24.3575C136.023 24.3575 135.302 23.6345 135.302 22.7419V10.201C135.302 9.30838 136.023 8.58643 136.915 8.58643ZM149.296 12.7103C150.124 12.7103 150.824 13.3473 150.824 14.1976C150.824 14.4532 150.739 14.814 150.676 14.963L146.705 24.5065C145.749 26.8231 144.794 27.6947 142.862 27.6947C142.139 27.6947 141.63 27.5888 141.099 27.3972C140.632 27.2273 140.079 26.8444 140.079 26.0585C140.079 25.2718 140.695 24.74 141.354 24.74C141.552 24.74 141.686 24.7658 141.796 24.7972L141.884 24.825C142.161 24.9103 142.331 24.9533 142.565 24.9533C143.137 24.9533 143.414 24.8467 143.711 24.2726L143.817 24.0177L139.932 15.0053C139.847 14.7927 139.761 14.4742 139.761 14.2613C139.761 13.3473 140.462 12.7103 141.354 12.7103C142.132 12.7103 142.594 13.1248 142.873 13.84L145.367 20.5528L147.745 13.942C148.001 13.2627 148.467 12.7103 149.296 12.7103Z" fill="#A1A3B0"/>
<path d="M18.4603 0.867188C28.2009 0.867188 36.0964 8.77038 36.0964 18.5206C36.0964 27.9711 28.6777 35.6875 19.351 36.1518H17.5697C8.24359 35.6875 0.824219 27.9711 0.824219 18.5206C0.824219 8.77038 8.72043 0.867188 18.4603 0.867188Z" fill="#A1A3B0"/>
<path d="M17.763 8.17074C21.7232 7.9052 25.2451 9.86473 27.205 12.9272C27.515 13.4616 27.3646 14.1409 26.8493 14.4984C26.3065 14.8753 25.5922 14.7091 25.184 14.1339C23.7681 12.1391 21.2962 10.4888 18.4783 10.4888C13.0716 10.4888 8.92268 15.9184 11.1018 21.605C12.0617 24.1103 14.3367 25.9039 16.9855 26.3202C20.2389 26.8311 23.2146 25.673 24.9284 23.1562L23.8574 23.3067H22.0093C21.4227 23.3067 20.8799 22.9106 20.7754 22.3328C20.6383 21.5744 21.2171 20.9135 21.9501 20.9135H28.4389V27.7263C28.4389 28.46 27.7794 29.0396 27.0211 28.9028C26.4437 28.7983 26.0487 28.2544 26.0487 27.6678V26.5303L26.2734 25.2717C24.3756 27.4659 21.5897 28.8222 18.4783 28.8222C12.5549 28.8222 7.79213 23.9153 8.13673 17.9055C8.43316 12.7408 12.6063 8.51719 17.763 8.17074Z" fill="white"/>
</g>
<defs>
<clipPath id="clip0_75_313">
<rect width="150" height="35.4492" fill="white" transform="translate(0.837891 0.866943)"/>
</clipPath>
</defs>
</svg>
