<svg width="6" height="6" viewBox="0 0 6 6" fill="none" xmlns="http://www.w3.org/2000/svg">
<path d="M4.79331 0.819134C4.88975 0.819577 4.9821 0.858081 5.05029 0.926271C5.11848 0.994461 5.15699 1.08682 5.15743 1.18325L5.15743 4.61835C5.15916 4.66724 5.15102 4.71599 5.1335 4.76167C5.11597 4.80736 5.08943 4.84904 5.05545 4.88425C5.02147 4.91945 4.98074 4.94745 4.93571 4.96657C4.89067 4.98569 4.84224 4.99555 4.79331 4.99555C4.74438 4.99555 4.69596 4.98569 4.65092 4.96657C4.60588 4.94745 4.56516 4.91945 4.53118 4.88425C4.49719 4.84904 4.47065 4.80736 4.45313 4.76167C4.43561 4.71599 4.42747 4.66724 4.42919 4.61835L4.42919 2.06264L0.928833 5.563C0.860505 5.63133 0.767831 5.66971 0.671201 5.66971C0.57457 5.66971 0.481897 5.63133 0.413569 5.563C0.345241 5.49467 0.306854 5.402 0.306854 5.30537C0.306854 5.20873 0.345241 5.11606 0.413569 5.04773L3.91393 1.54737L1.35822 1.54737C1.26387 1.54404 1.1745 1.50422 1.10894 1.4363C1.04337 1.36838 1.00673 1.27766 1.00673 1.18325C1.00673 1.08885 1.04337 0.998129 1.10894 0.930207C1.1745 0.862285 1.26387 0.822464 1.35822 0.819134L4.79331 0.819134Z" fill="#1F253F"/>
</svg>
