<svg width="6" height="6" viewBox="0 0 6 6" fill="none" xmlns="http://www.w3.org/2000/svg">
<path d="M5.30503 0.819134C5.40147 0.819577 5.49382 0.858081 5.56201 0.926271C5.6302 0.994461 5.66871 1.08682 5.66915 1.18325L5.66915 4.61835C5.67088 4.66724 5.66274 4.71599 5.64522 4.76167C5.62769 4.80736 5.60115 4.84904 5.56717 4.88425C5.53319 4.91945 5.49246 4.94745 5.44742 4.96657C5.40239 4.98569 5.35396 4.99555 5.30503 4.99555C5.2561 4.99555 5.20767 4.98569 5.16264 4.96657C5.1176 4.94745 5.07688 4.91945 5.04289 4.88425C5.00891 4.84904 4.98237 4.80736 4.96485 4.76167C4.94733 4.71599 4.93919 4.66724 4.94091 4.61835L4.94091 2.06264L1.44055 5.563C1.37222 5.63133 1.27955 5.66971 1.18292 5.66971C1.08629 5.66971 0.993616 5.63133 0.925288 5.563C0.85696 5.49467 0.818573 5.402 0.818573 5.30537C0.818573 5.20873 0.85696 5.11606 0.925288 5.04773L4.42565 1.54737L1.86994 1.54737C1.77559 1.54404 1.68622 1.50422 1.62065 1.4363C1.55509 1.36838 1.51844 1.27766 1.51844 1.18325C1.51844 1.08885 1.55509 0.998129 1.62065 0.930207C1.68622 0.862285 1.77559 0.822464 1.86994 0.819134L5.30503 0.819134Z" fill="white"/>
</svg>
