<svg width="97" height="39" viewBox="0 0 97 39" fill="none" xmlns="http://www.w3.org/2000/svg">
<g clip-path="url(#clip0_75_308)">
<path d="M55.7443 8.05249V35.8947L61.2396 35.9942V17.8318C61.2396 15.1798 64.1526 13.604 66.5356 13.3418C69.342 13.0329 72.4825 15.435 72.4825 19.3772C72.4825 22.4438 69.4614 25.0758 67.4354 25.3878C64.655 25.8162 63.2549 24.7272 62.4383 24.1191V28.9077C66.0226 31.0204 72.6894 30.2533 75.8232 25.0799C78.3304 28.8071 83.0008 30.7406 87.6016 29.5545L88.5886 29.2466C93.8759 27.3346 96.8407 21.721 95.4352 16.2833C93.9297 10.4588 87.9819 6.95637 82.1499 8.45986C79.4248 9.16235 77.206 10.8335 75.7702 13.009C75.772 12.997 75.7748 12.9868 75.7765 12.9748C73.8941 10.219 70.6297 8.29995 66.6353 8.40383C63.3602 8.48911 60.6386 9.84663 60.6386 9.84663V8.05259L55.7443 8.05249ZM84.9209 13.2422C88.1766 13.2422 90.8179 15.8769 90.8179 19.1285C90.8179 22.38 88.1766 25.0177 84.9209 25.0177C81.6651 25.0177 79.027 22.3799 79.027 19.1285C79.027 15.877 81.6651 13.2423 84.9209 13.2423V13.2422Z" fill="#A1A3B0"/>
<path fill-rule="evenodd" clip-rule="evenodd" d="M32.5647 8.05347V35.8945L38.0591 35.9949V17.8326C38.0591 15.1807 40.9726 13.6053 43.3556 13.343C46.1619 13.0342 49.5505 15.785 49.5505 19.3779C49.5505 22.291 46.7829 25.1478 44.2541 25.5374C42.1649 25.8592 40.0758 24.7281 39.2591 24.1199V28.9077C42.0312 31.0127 54.3444 31.104 54.3444 18.8303C54.3444 13.0034 48.845 8.26312 43.4561 8.40332C40.181 8.48849 37.4591 9.8481 37.4591 9.8481V8.05347H32.5647ZM4.23679 8.60103L1.53825 15.0374C5.27865 13.6601 8.26373 13.4686 11.0804 13.5409L0.840828 29.6071H27.2683C29.2509 29.5205 29.5487 28.2515 29.5921 27.2863V17.3338H23.7718V24.6675H10.8825L20.9728 8.60103H4.23679Z" fill="#A1A3B0"/>
<path fill-rule="evenodd" clip-rule="evenodd" d="M27.8167 15.7117C31.2143 14.4922 31.3377 9.66373 28.1165 5.88282C28.164 6.95586 27.9759 7.41705 27.6918 7.62909C26.7054 5.97008 26.3129 4.86072 23.87 3.18848C25.0192 7.50511 23.3562 8.18551 22.9708 11.0217C22.6074 13.6961 25.3365 15.6046 25.4188 15.5122C25.2365 15.497 24.9958 13.0226 26.4928 12.9177C27.8952 12.8196 27.887 15.6716 27.8167 15.7117Z" fill="#A1A3B0"/>
</g>
<defs>
<clipPath id="clip0_75_308">
<rect width="96" height="38.3502" fill="white" transform="translate(0.837891 0.416504)"/>
</clipPath>
</defs>
</svg>
